<svg xmlns="http://www.w3.org/2000/svg" viewBox="0 0 512 512" width="512" height="512">
  <defs>
    <linearGradient id="grad1" x1="0%" y1="0%" x2="100%" y2="100%">
      <stop offset="0%" style="stop-color:#667eea;stop-opacity:1" />
      <stop offset="100%" style="stop-color:#764ba2;stop-opacity:1" />
    </linearGradient>
  </defs>
  
  <!-- Background circle -->
  <circle cx="256" cy="256" r="240" fill="url(#grad1)" stroke="#ffffff" stroke-width="8"/>
  
  <!-- Cloud -->
  <path d="M160 280c0-44.2 35.8-80 80-80s80 35.8 80 80" fill="none" stroke="#ffffff" stroke-width="12" stroke-linecap="round"/>
  
  <!-- Sun rays -->
  <g fill="#ffffff">
    <circle cx="256" cy="120" r="20"/>
    <rect x="246" y="80" width="20" height="15" rx="10"/>
    <rect x="246" y="425" width="20" height="15" rx="10"/>
    <rect x="80" y="246" width="15" height="20" rx="10"/>
    <rect x="417" y="246" width="15" height="20" rx="10"/>
    <rect x="100" y="100" width="15" height="20" rx="10" transform="rotate(-45 107.5 110)"/>
    <rect x="397" y="380" width="15" height="20" rx="10" transform="rotate(-45 404.5 390)"/>
    <rect x="100" y="380" width="15" height="20" rx="10" transform="rotate(45 107.5 390)"/>
    <rect x="397" y="100" width="15" height="20" rx="10" transform="rotate(45 404.5 110)"/>
  </g>
  
  <!-- Temperature indicator -->
  <rect x="240" y="200" width="32" height="80" rx="16" fill="#ffffff"/>
  <rect x="248" y="210" width="16" height="60" rx="8" fill="#667eea"/>
  <circle cx="256" cy="280" r="8" fill="#ffffff"/>
</svg> 